<?xml version="1.0" standalone="no"?>
<!DOCTYPE svg PUBLIC "-//W3C//DTD SVG 20010904//EN"
 "http://www.w3.org/TR/2001/REC-SVG-20010904/DTD/svg10.dtd">
<svg version="1.0" xmlns="http://www.w3.org/2000/svg"
 width="700.000000pt" height="700.000000pt" viewBox="0 0 700.000000 700.000000"
 preserveAspectRatio="xMidYMid meet">
<metadata>
Created by potrace 1.11, written by Peter Selinger 2001-2013
</metadata>
<g transform="translate(0.000000,700.000000) scale(0.100000,-0.100000)"
fill="#000000" stroke="none">
<path d="M3411 6919 c-228 -31 -422 -199 -497 -432 -19 -62 -22 -88 -19 -182
3 -60 6 -123 7 -139 2 -20 -3 -32 -17 -40 -11 -6 -43 -26 -72 -43 -30 -18 -55
-33 -58 -33 -2 0 -42 -22 -87 -49 -46 -27 -99 -58 -118 -68 -19 -11 -123 -71
-230 -133 -107 -62 -213 -123 -235 -135 -22 -13 -161 -93 -308 -179 l-268
-155 -57 46 c-117 95 -265 144 -415 138 -94 -5 -102 -6 -178 -32 -311 -105
-480 -452 -375 -767 60 -179 184 -308 360 -377 l71 -28 0 -811 0 -812 -64 -24
c-189 -71 -328 -226 -381 -424 -39 -144 -9 -332 74 -469 197 -321 641 -384
928 -132 l36 31 73 -43 c41 -24 94 -55 119 -69 25 -14 86 -49 135 -78 50 -29
110 -64 135 -77 25 -14 50 -29 55 -33 6 -4 30 -19 55 -32 51 -29 356 -204 635
-366 181 -105 190 -112 187 -139 -13 -139 -10 -234 9 -304 76 -275 310 -453
594 -452 170 0 300 56 426 183 57 57 86 97 113 153 70 145 84 303 40 449 -4
13 14 27 72 60 106 60 128 72 304 174 649 377 1011 584 1018 584 5 0 19 -12
33 -26 82 -90 259 -165 402 -169 300 -10 552 184 621 478 18 77 14 221 -9 297
-39 130 -132 260 -234 329 -50 34 -138 80 -166 86 -46 10 -44 -43 -42 826 l2
810 80 32 c226 91 371 298 381 543 13 340 -246 618 -586 629 -157 5 -288 -39
-411 -137 l-58 -47 -183 105 c-101 58 -201 116 -223 129 -99 56 -568 327 -638
369 -43 25 -80 46 -82 46 -2 0 -60 34 -130 75 -69 41 -131 75 -136 75 -7 0 -7
17 -2 48 16 93 9 242 -14 317 -90 287 -371 465 -672 424z m-338 -1035 c3 -3
-4 -22 -15 -42 -12 -21 -31 -55 -43 -77 -13 -22 -80 -139 -150 -260 -208 -360
-398 -688 -412 -715 -8 -14 -25 -43 -39 -65 -13 -22 -27 -47 -31 -55 -4 -8
-17 -32 -30 -53 -13 -21 -33 -55 -45 -75 -11 -20 -113 -197 -226 -392 -236
-409 -430 -746 -446 -775 -6 -11 -16 -27 -22 -35 -7 -8 -24 -37 -39 -65 -14
-27 -38 -71 -53 -96 -15 -26 -85 -148 -157 -272 -71 -125 -136 -227 -142 -227
-10 0 -13 170 -13 818 l0 818 53 17 c118 38 251 144 317 253 19 32 47 94 62
138 24 73 26 93 24 196 -2 63 -7 124 -11 136 -7 21 3 27 459 289 69 39 338
195 378 218 56 33 312 180 338 195 14 7 70 40 125 72 104 62 108 64 118 54z
m935 -33 c37 -21 83 -48 102 -59 19 -11 76 -43 125 -72 101 -59 138 -81 193
-111 20 -12 154 -89 297 -172 142 -82 280 -162 305 -176 310 -176 322 -184
315 -205 -3 -12 -8 -62 -12 -112 -12 -179 47 -337 172 -459 39 -38 78 -75 87
-82 27 -20 112 -60 156 -73 l42 -13 0 -819 c0 -499 -4 -818 -9 -818 -12 0 -38
37 -78 110 -17 30 -104 181 -193 335 -167 288 -185 318 -221 383 -12 20 -88
152 -169 292 -81 140 -157 272 -169 293 -32 56 -50 88 -151 262 -51 88 -102
176 -113 195 -24 43 -114 199 -127 220 -5 8 -40 69 -78 135 -83 145 -254 441
-430 745 -116 200 -135 240 -116 240 3 0 36 -17 72 -39z m-584 -140 c57 -7
112 -6 171 3 22 3 48 7 59 9 17 2 74 -87 220 -347 13 -23 96 -167 186 -321 89
-154 172 -298 185 -320 12 -22 71 -123 130 -225 59 -102 117 -203 130 -225 12
-22 36 -63 52 -91 17 -27 41 -70 55 -95 14 -24 59 -102 100 -174 364 -629 484
-836 506 -875 14 -25 83 -145 154 -267 70 -122 131 -229 134 -237 3 -8 -4 -25
-16 -38 -60 -62 -124 -173 -136 -238 -4 -16 -12 -30 -18 -31 -6 -1 -834 -2
-1839 -3 -1210 0 -1831 2 -1836 9 -4 6 -18 37 -31 70 -27 70 -76 149 -115 187
-16 16 -25 34 -21 43 3 8 47 86 97 172 50 87 101 174 112 193 26 47 320 556
343 597 27 45 216 374 230 398 6 11 62 108 124 215 62 107 178 308 257 445 79
138 148 257 153 265 8 13 45 78 159 274 13 23 91 158 174 301 83 143 155 269
161 280 23 41 28 46 48 39 11 -3 43 -9 72 -13z m1919 -3770 c4 0 7 -10 7 -21
0 -13 -14 -27 -42 -41 -24 -12 -54 -29 -68 -39 -14 -9 -50 -30 -80 -47 -50
-27 -374 -214 -605 -348 -297 -173 -457 -265 -460 -265 -1 0 -33 -18 -69 -40
-36 -22 -70 -40 -74 -40 -5 0 -17 10 -28 21 -27 30 -112 92 -154 111 -164 76
-348 82 -504 16 -60 -26 -144 -78 -179 -114 l-25 -25 -74 42 c-40 23 -91 52
-113 64 -22 13 -117 68 -211 122 -94 55 -177 103 -185 106 -8 4 -27 16 -44 26
-27 16 -228 133 -315 183 -222 127 -457 263 -464 269 -4 4 -6 11 -3 16 4 7
3654 11 3690 4z"/>
</g>
</svg>
